<svg class="animated" id="freepik_stories-diving" xmlns="http://www.w3.org/2000/svg" viewBox="0 0 500 500" version="1.1" xmlns:xlink="http://www.w3.org/1999/xlink" xmlns:svgjs="http://svgjs.com/svgjs"><style>svg#freepik_stories-diving:not(.animated) .animable {opacity: 0;}svg#freepik_stories-diving.animated #freepik--Plants--inject-58 {animation: 3s Infinite  linear floating;animation-delay: 0s;}svg#freepik_stories-diving.animated #freepik--Bubbles--inject-58 {animation: 3s Infinite  linear floating;animation-delay: 0s;}svg#freepik_stories-diving.animated #freepik--Fishes--inject-58 {animation: 3s Infinite  linear floating;animation-delay: 0s;}svg#freepik_stories-diving.animated #freepik--Character--inject-58 {animation: 3s Infinite  linear floating;animation-delay: 0s;}            @keyframes floating {                0% {                    opacity: 1;                    transform: translateY(0px);                }                50% {                    transform: translateY(-10px);                }                100% {                    opacity: 1;                    transform: translateY(0px);                }            }        .animator-hidden { display: none; }</style><g id="freepik--background-complete--inject-58" class="animable animator-hidden" style="transform-origin: 250px 219.576px;"><rect y="382.4" width="500" height="0.25" style="fill: rgb(235, 235, 235); transform-origin: 250px 382.525px;" id="elf40viksub65" class="animable"></rect><rect x="416.78" y="398.49" width="33.12" height="0.25" style="fill: rgb(235, 235, 235); transform-origin: 433.34px 398.615px;" id="eld38dbgcsjw9" class="animable"></rect><rect x="322.53" y="401.21" width="8.69" height="0.25" style="fill: rgb(235, 235, 235); transform-origin: 326.875px 401.335px;" id="el8jfyluwm5zl" class="animable"></rect><rect x="396.59" y="389.21" width="19.19" height="0.25" style="fill: rgb(235, 235, 235); transform-origin: 406.185px 389.335px;" id="el0fw2az25p8xc" class="animable"></rect><rect x="52.46" y="390.89" width="43.19" height="0.25" style="fill: rgb(235, 235, 235); transform-origin: 74.055px 391.015px;" id="elukfnim6amj" class="animable"></rect><rect x="104.56" y="390.89" width="6.33" height="0.25" style="fill: rgb(235, 235, 235); transform-origin: 107.725px 391.015px;" id="elvzzxychg3mp" class="animable"></rect><rect x="131.47" y="395.11" width="93.68" height="0.25" style="fill: rgb(235, 235, 235); transform-origin: 178.31px 395.235px;" id="elik21gmuht2b" class="animable"></rect><path d="M237,337.8H43.91a5.71,5.71,0,0,1-5.7-5.71V60.66A5.71,5.71,0,0,1,43.91,55H237a5.71,5.71,0,0,1,5.71,5.71V332.09A5.71,5.71,0,0,1,237,337.8ZM43.91,55.2a5.46,5.46,0,0,0-5.45,5.46V332.09a5.46,5.46,0,0,0,5.45,5.46H237a5.47,5.47,0,0,0,5.46-5.46V60.66A5.47,5.47,0,0,0,237,55.2Z" style="fill: rgb(235, 235, 235); transform-origin: 140.46px 196.4px;" id="el5ehsjw2b16" class="animable"></path><path d="M453.31,337.8H260.21a5.72,5.72,0,0,1-5.71-5.71V60.66A5.72,5.72,0,0,1,260.21,55h193.1A5.71,5.71,0,0,1,459,60.66V332.09A5.71,5.71,0,0,1,453.31,337.8ZM260.21,55.2a5.47,5.47,0,0,0-5.46,5.46V332.09a5.47,5.47,0,0,0,5.46,5.46h193.1a5.47,5.47,0,0,0,5.46-5.46V60.66a5.47,5.47,0,0,0-5.46-5.46Z" style="fill: rgb(235, 235, 235); transform-origin: 356.75px 196.4px;" id="elqlhmt4z2rdh" class="animable"></path><path d="M228.16,153.7c93.58-.7,195.17,23.4,246.79,15.12,7.91-1.27,14.72,2.76,14.72,8.63h0c0,3.76-2.82,7.48-7.35,9.57-91.77,42.24-242.5,15.66-315.08,12.28-48.22-2.25-99.69,18.61-130,33.64-12.1,6-26.87.83-26.87-9.37h0c0-4.93,3.65-9.79,9.51-12.66C49.33,196.45,142.43,154.35,228.16,153.7Z" style="fill: rgb(250, 250, 250); transform-origin: 250.02px 194.588px;" id="elmh9xqtydo9c" class="animable"></path><path d="M271.84,39C178.26,49.44,76.67,94.38,25.05,89.47a13.5,13.5,0,0,0-14.72,13.47h0a13.43,13.43,0,0,0,7.36,12c91.76,45.94,242.49-8.33,315.07-21.75,48.22-8.91,99.69,13,130,29.65a18.15,18.15,0,0,0,26.87-15.93h0a18.15,18.15,0,0,0-9.51-16C450.67,75,357.57,29.43,271.84,39Z" style="fill: rgb(250, 250, 250); transform-origin: 249.98px 85.3794px;" id="elolhx2ebuqjr" class="animable"></path><path d="M411.27,346.47c4.29-2.33,9.48-2.52,13.81-4.77a16.11,16.11,0,0,0,7.85-9.4,5.69,5.69,0,0,0-.07-4.42c-1.61-2.88-5.83-2-9.13-2.07a12.72,12.72,0,0,1-11.93-9.9,6.39,6.39,0,0,1,.37-4.23c.94-1.78,3-2.64,4.73-3.57a27.91,27.91,0,0,0,13.64-16.67,3.45,3.45,0,0,0,0-2.66c-.65-1.13-2.24-1.23-3.54-1-5.46.77-10.37,3.93-15.84,4.59s-12.27-3.07-11.44-8.51c.58-3.81,4.44-6,7.55-8.32a32.53,32.53,0,0,0,7.1-7.15,8.46,8.46,0,0,0,2-4.75c0-4-4.77-6.42-8.7-5.86s-7.3,3-10.93,4.65a5.56,5.56,0,0,1-3,.67,4.94,4.94,0,0,1-3.32-2.53c-3-4.91-1.61-11.37,1-16.54s6.24-9.88,7.68-15.47c.86-3.29.74-7.19-1.65-9.61-3.94-4-11.2-1.12-14.09,3.68s-3.05,10.71-4.52,16.12c-.43,1.55-1.13,3.25-2.62,3.84s-3.45-.33-4.69-1.55c-3.5-3.42-4.5-8.66-4.49-13.56,0-4.55.92-9.08.51-13.63a5.24,5.24,0,0,0-1.29-3.27c-3.59-3.66-13.18-.34-16.64,2-3.23,2.19-5.73,6.36-4.5,10.32.73,2.32,2.56,4.12,3.61,6.32s.95,5.39-1.26,6.41a5.49,5.49,0,0,1-3.29.14,34.63,34.63,0,0,1-16.4-7.82c-2.65-2.3-5-5-8-6.86-5.17-3.21-12.62-2.18-13.46,4.85a10.85,10.85,0,0,0,2.47,7.87,18.58,18.58,0,0,0,6.71,5,65,65,0,0,0,7.95,2.89c6.29,2,12.54,4.32,18.15,7.8,1.05.66,2.22,1.68,1.95,2.89s-1.81,1.62-3.07,1.74a61.17,61.17,0,0,1-34.09-6.7c-6.87-3.61-13.58-8.68-21.34-8.57a7,7,0,0,0-4,1c-2,1.42-2.42,4.33-1.6,6.62a14.34,14.34,0,0,0,4.46,5.69,61.21,61.21,0,0,0,17.61,10.7c7.71,3,24.61,7.62,19.48,13.77s-13.27,3.05-19.19.05c-5-2.56-8.85-7-13.53-10.18s-11.25-4.9-15.83-1.58a7.35,7.35,0,0,0-3,4.68c-.54,3.46,2,6.68,4.71,8.84,11.05,8.67,43.17,8.78,37.91,17.62s-22.53.94-31.69-5.21c-5.54-3.71-11.14-9.14-17.7-8a5.46,5.46,0,0,0-4.27,3c-1,2.55,1,5.25,3,7.09a42.68,42.68,0,0,0,15.93,9.07c3.64,1.13,7.47,1.78,10.85,3.53s6.37,4.94,6.48,8.75a5,5,0,0,1-1.74,4.19c-1.78,1.34-4.3.8-6.41.06a52.48,52.48,0,0,1-17.06-9.84c-2.41-2.08-5.79-4.52-8.41-2.7-1.77,1.22-2,3.91-1,5.84s2.76,3.28,4.5,4.55l17.23,12.69c2.76,2,5.8,4.61,5.7,8-.1,3.63-4,6.23-7.66,6.11s-6.89-2.22-9.74-4.47a65.78,65.78,0,0,1-8.66-8.19c-1.07-1.21-2.37-2.57-4-2.42-2.44.24-3.07,3.56-2.56,6,2.5,11.72,15.09,18.14,21.64,28.18,4.37,6.71,6.53,15.6,13.61,19.32l130.19.74c2.28-1.73,4.68-1.41,5.42-3a2.89,2.89,0,0,0-1.52-4c-1.19-.59-2.6-.48-3.88-.81s-2.59-1.51-2.2-2.78a2.89,2.89,0,0,1,1.48-1.5c2.63-1.47,5.69-2.06,8.28-3.6s6.84-3.63,3.74-7.46-10.73.62-16.09.93c-2.78.17-5.9.21-7.94-1.68C404.07,355.14,407,348.8,411.27,346.47Z" style="fill: rgb(240, 240, 240); transform-origin: 344.019px 295.655px;" id="el23z2i2tad77" class="animable"></path><path d="M78.69,356.24c-2.88-1.7-6.64-1.83-9.55-3.48a9.56,9.56,0,0,1-4.7-6.84,4.29,4.29,0,0,1,.53-3.21c1.48-2.1,4.46-1.48,6.87-1.51A11.19,11.19,0,0,0,81.59,334a4.58,4.58,0,0,0,.18-3.08c-.49-1.3-1.86-1.92-3.06-2.6a16.64,16.64,0,0,1-8.13-12.14,2.57,2.57,0,0,1,.28-1.93,2.77,2.77,0,0,1,2.69-.77c3.89.56,7.13,2.86,11,3.34s9.26-2.23,9.24-6.19c0-2.78-2.58-4.4-4.6-6.06a19.29,19.29,0,0,1-4.4-5.2,5.52,5.52,0,0,1-.93-3.46c.4-2.9,4.17-4.68,7-4.27s5,2.21,7.45,3.39a3.85,3.85,0,0,0,2.11.49,4.44,4.44,0,0,0,2.69-1.85c2.74-3.57,2.4-8.28,1.07-12s-3.47-7.19-3.93-11.26c-.26-2.4.24-5.24,2.24-7,3.3-2.91,8.28-.82,9.86,2.68s1.07,7.8,1.57,11.73c.14,1.14.46,2.37,1.49,2.8s2.54-.24,3.58-1.12c2.91-2.5,4.21-6.31,4.73-9.88.48-3.31.3-6.61,1.09-9.93a4.55,4.55,0,0,1,1.29-2.37c3-2.67,9.63-.25,11.9,1.46a6.25,6.25,0,0,1,2.17,7.51c-.78,1.69-2.31,3-3.31,4.6s-1.27,3.93.23,4.67a3.91,3.91,0,0,0,2.38.1,29.78,29.78,0,0,0,12.78-5.69c2.18-1.67,4.16-3.65,6.53-5,4.11-2.34,9.43-1.59,9.28,3.53a9.14,9.14,0,0,1-2.64,5.73,16.48,16.48,0,0,1-5.43,3.66,54.32,54.32,0,0,1-6.1,2.11,68.68,68.68,0,0,0-14.06,5.68c-.83.48-1.79,1.22-1.72,2.1s1.14,1.18,2,1.27a48.15,48.15,0,0,0,25.54-4.88c5.4-2.62,10.82-6.32,16.46-6.24a4.58,4.58,0,0,1,2.79.76c1.29,1,1.29,3.15.45,4.82a13,13,0,0,1-3.86,4.14,53.71,53.71,0,0,1-14,7.79c-5.94,2.22-18.74,5.55-15.67,10s9.33,2.22,14,0c3.95-1.86,7.2-5.1,10.95-7.41s8.72-3.57,11.69-1.15a4.48,4.48,0,0,1,1.69,3.41c0,2.52-2.14,4.86-4.38,6.44-9,6.31-32.38,6.39-29.49,12.82s16.29.69,23.63-3.79c4.43-2.7,9.1-6.65,13.74-5.8a3.28,3.28,0,0,1,2.79,2.17c.46,1.85-1.29,3.82-3,5.16a37.17,37.17,0,0,1-12.58,6.6c-2.77.83-5.62,1.3-8.27,2.57s-5.17,3.6-5.66,6.37a3.23,3.23,0,0,0,.81,3c1.15,1,3.05.58,4.66.05A46.09,46.09,0,0,0,186,328.79c2-1.52,4.7-3.3,6.42-2,1.16.9,1,2.85.1,4.26a12.4,12.4,0,0,1-3.76,3.32l-13.91,9.23c-2.23,1.48-4.72,3.36-5,5.85s2.27,4.53,4.92,4.44,5.26-1.61,7.58-3.24a61.11,61.11,0,0,0,7.18-6c.91-.88,2-1.87,3.15-1.76,1.75.17,1.85,2.59,1.22,4.33-3.08,8.54-12.93,13.21-18.79,20.53-3.9,4.88-6.43,11.35-12,14.06l-94.87.54c-1.46-1.26-3.25-1-3.61-2.22a2.41,2.41,0,0,1,1.54-2.9,15,15,0,0,1,2.91-.59c1-.24,2-1.1,1.9-2a1.69,1.69,0,0,0-.92-1.09c-1.75-1.08-3.92-1.51-5.64-2.63s-4.59-2.64-1.92-5.43,7.75.46,11.62.68c2,.12,4.27.16,6-1.22C83,362.55,81.56,357.94,78.69,356.24Z" style="fill: rgb(240, 240, 240); transform-origin: 128.963px 319.24px;" id="elevfz89wjmnr" class="animable"></path><path d="M344,228.39s5-1.07,6.55.3c1.64-2,10.37-8.3,15-4.64-.66,5.84-11.25,7.6-13.85,7.32-.18,1.84-4.19,4.49-4.19,4.49a20.29,20.29,0,0,1,.89-4.69A11.37,11.37,0,0,1,344,228.39Z" style="fill: rgb(230, 230, 230); transform-origin: 354.775px 229.394px;" id="el173dh6tk01yh" class="animable"></path><path d="M380.69,214.89c1.3-2.73,9.88-12.46,16.9-10.28,1.3,6.36-11.21,12-14.54,12.7.43,2-3.58,6.22-3.58,6.22a19.27,19.27,0,0,1-.6-5.24,16.11,16.11,0,0,1-6.42-1.33S378.33,214,380.69,214.89Z" style="fill: rgb(230, 230, 230); transform-origin: 385.067px 213.912px;" id="elkwqbvps9rq" class="animable"></path><path d="M391.6,192.53c1.07,1.65-1.2,7.6-1.2,7.6a17.49,17.49,0,0,1-2.3-4.64,15.89,15.89,0,0,1-6.34,1.9s4.4-5.65,6.87-6c.28-3.21,4.89-16.55,12.06-17.94C404,178.81,394.44,190.28,391.6,192.53Z" style="fill: rgb(230, 230, 230); transform-origin: 391.569px 186.79px;" id="elzv20g7yfhvq" class="animable"></path><path d="M361.77,190.42c-.39,3.47-6.68,4.51-8.22,4.35-.11,1.09-2.49,2.66-2.49,2.66a11.92,11.92,0,0,1,.53-2.78A6.76,6.76,0,0,1,349,193s3-.64,3.89.17C353.86,192,359,188.25,361.77,190.42Z" style="fill: rgb(230, 230, 230); transform-origin: 355.385px 193.593px;" id="el731826k6pt5" class="animable"></path><path d="M357.4,184.66c0,1.06-2.27,3.28-2.27,3.28a10.9,10.9,0,0,1,.19-2.77,6.26,6.26,0,0,1-2.95-.72s3.07-1.55,4.12-1.07c.87-1.44,5.85-6.56,9-5.39C365.54,181.35,359.05,184.33,357.4,184.66Z" style="fill: rgb(230, 230, 230); transform-origin: 358.93px 182.879px;" id="eliaufbbp5q9l" class="animable"></path><path d="M390.2,171.44a10.35,10.35,0,0,1-1.73-2.54,9.37,9.37,0,0,1-3.57,1.64s2.12-3.69,3.54-4.08c-.1-1.91,1.51-10.13,5.61-11.55,2.39,2.87-2.29,10.4-3.77,12C391.05,167.75,390.2,171.44,390.2,171.44Z" style="fill: rgb(230, 230, 230); transform-origin: 389.809px 163.175px;" id="elwh541aejlza" class="animable"></path><path d="M392.12,223.06c1-1.26,6.42-5.14,9.26-2.87-.4,3.62-7,4.71-8.57,4.54-.11,1.14-2.6,2.78-2.6,2.78a12.91,12.91,0,0,1,.55-2.91,7.05,7.05,0,0,1-2.7-1.72S391.18,222.21,392.12,223.06Z" style="fill: rgb(230, 230, 230); transform-origin: 394.72px 223.501px;" id="elsfwc743t5x" class="animable"></path><path d="M406.19,209.35c.91-1.51,6.1-6.85,9.4-5.63,0,3.51-6.73,6.62-8.45,7,0,1.1-2.37,3.42-2.37,3.42a11.33,11.33,0,0,1,.19-2.89,6.56,6.56,0,0,1-3.07-.75S405.1,208.85,406.19,209.35Z" style="fill: rgb(230, 230, 230); transform-origin: 408.74px 208.84px;" id="el9wk7ogohvj" class="animable"></path><path d="M414.49,217.53c.68-1.75,5.54-8.14,10-7.12,1.09,3.88-6.38,8-8.41,8.51.36,1.21-1.93,4-1.93,4a11.81,11.81,0,0,1-.6-3.21,9.82,9.82,0,0,1-4-.53S413,217.09,414.49,217.53Z" style="fill: rgb(230, 230, 230); transform-origin: 417.074px 216.61px;" id="elpk8zstjmn1" class="animable"></path><path d="M417.57,195.5c.49-.83,3.33-3.57,5.2-2.48.07,2.16-3.69,3.36-4.65,3.4,0,.68-1.29,1.85-1.29,1.85a7.26,7.26,0,0,1,.08-1.75,4.14,4.14,0,0,1-1.74-.78S417,195.08,417.57,195.5Z" style="fill: rgb(230, 230, 230); transform-origin: 418.971px 195.519px;" id="eldc04dbmo2hd" class="animable"></path><path d="M355.65,217.19a18.5,18.5,0,0,1,.33-4.67,10.59,10.59,0,0,1-5-1.21s5.18-2.61,6.95-1.81c1.46-2.43,9.84-11.05,15.16-9.08.07,5.67-10.86,10.68-13.64,11.24C359.53,213.44,355.65,217.19,355.65,217.19Z" style="fill: rgb(230, 230, 230); transform-origin: 362.035px 208.66px;" id="elta60r35ayc" class="animable"></path><path d="M376.14,187.53c.35,1.16-1.85,3.84-1.85,3.84a11.59,11.59,0,0,1-.58-3.07,9.6,9.6,0,0,1-3.86-.51s3.35-2,4.79-1.58c.65-1.68,5.31-7.81,9.56-6.83C385.24,183.09,378.08,187,376.14,187.53Z" style="fill: rgb(230, 230, 230); transform-origin: 377.076px 185.322px;" id="el2c7ltfppphc" class="animable"></path><path d="M421.54,204.86s3.18-3.1,4.72-3.09c.45-1.94,4.41-9.73,8.93-10,1.58,3.56-5.27,9.78-7.2,10.92.52,1.11-1.38,4.56-1.38,4.56a11,11,0,0,1-1-3A9.81,9.81,0,0,1,421.54,204.86Z" style="fill: rgb(230, 230, 230); transform-origin: 428.482px 199.51px;" id="elyqkqn9b0xpg" class="animable"></path><path d="M406.86,189.81c.16.72-1.11,2.56-1.11,2.56a7.78,7.78,0,0,1-.25-1.92,4.35,4.35,0,0,1-2.11-.09s1.89-1.48,2.67-1.3c.4-1.1,3.1-5.29,5.42-4.92C412,186.44,407.94,189.36,406.86,189.81Z" style="fill: rgb(230, 230, 230); transform-origin: 407.458px 188.243px;" id="el45vl2pvfuxq" class="animable"></path><path d="M408.6,157.93a7,7,0,0,1-1-1.44,3.86,3.86,0,0,1-1.72.76s.93-1.92,1.63-2.08c-.12-1,.41-5.43,2.4-6,1.29,1.64-.79,5.54-1.48,6.33C408.9,156,408.6,157.93,408.6,157.93Z" style="fill: rgb(230, 230, 230); transform-origin: 408.102px 153.55px;" id="elg1xcw2sj2ru" class="animable"></path><path d="M423.63,182.81c.31.68-.79,2.51-.79,2.51a7,7,0,0,1-.63-1.83,5.91,5.91,0,0,1-2.41,0s1.87-1.53,2.79-1.4c.25-1.09,2.55-5.26,5.25-5C428.81,179.27,424.77,182.31,423.63,182.81Z" style="fill: rgb(230, 230, 230); transform-origin: 423.895px 181.199px;" id="el8u9ivog9l7s" class="animable"></path><path d="M415.73,170.62c.5.75-.51,3.46-.51,3.46a7.91,7.91,0,0,1-1.07-2.09,7.27,7.27,0,0,1-2.87.88s2-2.59,3.1-2.74c.12-1.46,2.17-7.54,5.42-8.2C421.33,164.35,417,169.6,415.73,170.62Z" style="fill: rgb(230, 230, 230); transform-origin: 415.702px 168.005px;" id="elr1e4jmm3nir" class="animable"></path><path d="M431.31,163.85s2.23-3.68,3.93-3.81c-.31-2.17.88-11,5.73-11.75,3.18,3.74-1.8,11.18-3.46,12.6,1,1.16.33,5.11.33,5.11a16.54,16.54,0,0,1-2.34-3.22A9.52,9.52,0,0,1,431.31,163.85Z" style="fill: rgb(230, 230, 230); transform-origin: 436.66px 157.145px;" id="elersb1n101cm" class="animable"></path><path d="M416.06,135c-.1-2.53,2.49-13,8.53-14.14,3.41,4.21-3.65,13.24-5.86,15,1.09,1.3-.25,6-.25,6a16.36,16.36,0,0,1-2.46-3.65,13.41,13.41,0,0,1-5.26,1.5S414,135.23,416.06,135Z" style="fill: rgb(230, 230, 230); transform-origin: 418.132px 131.36px;" id="el5189ezrzmj9" class="animable"></path><path d="M320.22,230.05c.89-2.37,7.37-11,13.36-9.69,1.5,5.2-8.52,10.77-11.25,11.53.5,1.63-2.55,5.42-2.55,5.42a16,16,0,0,1-.85-4.32,13.37,13.37,0,0,1-5.43-.67S318.19,229.46,320.22,230.05Z" style="fill: rgb(230, 230, 230); transform-origin: 323.616px 228.768px;" id="elmylng65vvl" class="animable"></path><path d="M415.86,112.46c1.43.81,2.05,6.09,2.05,6.09a14.7,14.7,0,0,1-3.49-2.54,13.3,13.3,0,0,1-4,3.85s1.07-5.88,2.78-7.08c-1-2.47-2.78-14.12,2-17.92C419.75,97.53,417.1,109.71,415.86,112.46Z" style="fill: rgb(230, 230, 230); transform-origin: 414.165px 107.36px;" id="elsao9vs01i0n" class="animable"></path><path d="M392.62,124.18c1.05,2.72-3.2,5.92-4.41,6.39.35.85-.81,2.93-.81,2.93a10.28,10.28,0,0,1-.68-2.26,5.65,5.65,0,0,1-2.56-.22s2-1.63,2.95-1.37C387.36,128.37,389.76,123.63,392.62,124.18Z" style="fill: rgb(230, 230, 230); transform-origin: 388.473px 128.818px;" id="el5zb9dnxrqdj" class="animable"></path><path d="M387.16,121.61c.43.77-.42,3.3-.42,3.3a9.1,9.1,0,0,1-.92-2.12,5.21,5.21,0,0,1-2.46.6S385,121.06,386,121c.08-1.4,1.78-7.11,4.57-7.46C391.9,116,388.25,120.72,387.16,121.61Z" style="fill: rgb(230, 230, 230); transform-origin: 387.109px 119.225px;" id="el6jruspk4bwj" class="animable"></path><path d="M406.32,99.16a8.55,8.55,0,0,1-2.27-1.2,7.93,7.93,0,0,1-2,2.59s.14-3.55,1-4.39c-.81-1.37-2.8-8.07-.31-10.7,2.88,1.19,2.33,8.57,1.83,10.3C405.52,96.11,406.32,99.16,406.32,99.16Z" style="fill: rgb(230, 230, 230); transform-origin: 403.924px 93.005px;" id="elsznzwxz6pb" class="animable"></path><path d="M422.18,152.29c.08-1.35,1.86-6.6,4.89-6.45,1.49,2.65-2.43,6.58-3.61,7.25.48.82-.4,3.14-.4,3.14A10.61,10.61,0,0,1,422,154a5.91,5.91,0,0,1-2.67.15S421.14,152.17,422.18,152.29Z" style="fill: rgb(230, 230, 230); transform-origin: 423.367px 151.033px;" id="eluuk6duf141e" class="animable"></path><path d="M436.93,136.12c.09-1.46,1.87-7.41,4.78-7.78,1.39,2.58-2.42,7.49-3.56,8.41.45.8-.43,3.45-.43,3.45a9.53,9.53,0,0,1-1-2.22,5.43,5.43,0,0,1-2.57.63S435.93,136.18,436.93,136.12Z" style="fill: rgb(230, 230, 230); transform-origin: 438.081px 134.27px;" id="elb3o7hfbzpm4" class="animable"></path><path d="M437.1,117.05c.46-1.5,4.1-7.12,7.86-6.54,1.14,3.16-4.82,7-6.48,7.6.38,1-1.36,3.45-1.36,3.45a10.11,10.11,0,0,1-.7-2.64,8.34,8.34,0,0,1-3.38-.19S435.82,116.77,437.1,117.05Z" style="fill: rgb(230, 230, 230); transform-origin: 439.072px 116.014px;" id="elbmcjo0yont" class="animable"></path><path d="M434.72,101.1c0-.8,1.09-3.93,2.89-3.84.89,1.57-1.43,3.91-2.13,4.31.29.49-.23,1.87-.23,1.87a6,6,0,0,1-.62-1.33,3.53,3.53,0,0,1-1.59.1S434.1,101,434.72,101.1Z" style="fill: rgb(230, 230, 230); transform-origin: 435.425px 100.349px;" id="el07nn7r8oxqux" class="animable"></path><path d="M398.43,146.34a15.4,15.4,0,0,1-1.57-3.58,8.8,8.8,0,0,1-4.14,1s2.82-3.92,4.44-4c.15-2.37,3-12,7.71-12.58,2.24,4.17-3.91,12.09-5.75,13.59C399.85,142.07,398.43,146.34,398.43,146.34Z" style="fill: rgb(230, 230, 230); transform-origin: 399.037px 136.76px;" id="elmtx2t6qmiq" class="animable"></path><path d="M312.56,221.42a15.4,15.4,0,0,1-1.57-3.58,8.8,8.8,0,0,1-4.14,1s2.82-3.92,4.44-4c.15-2.36,3-12,7.71-12.58,2.24,4.17-3.91,12.1-5.75,13.59C314,217.15,312.56,221.42,312.56,221.42Z" style="fill: rgb(230, 230, 230); transform-origin: 313.167px 211.84px;" id="el5wxeclvcggb" class="animable"></path><path d="M402.13,116.5c.7.72.11,3.55.11,3.55a9.31,9.31,0,0,1-1.61-2,8,8,0,0,1-3.05,1.11s1.7-2.77,2.93-3c-.17-1.49.91-7.82,4.44-8.73C407.15,109.7,403.36,115.36,402.13,116.5Z" style="fill: rgb(230, 230, 230); transform-origin: 401.602px 113.74px;" id="elc1lhkoa54uc" class="animable"></path><path d="M444.35,102.32s1.15-3.51,2.3-4.1c-.43-1.61-.5-8.9,2.74-10.83,2.55,2-.11,9.27-1.1,10.85.81.62.74,3.91.74,3.91a9.13,9.13,0,0,1-1.93-1.85A8.2,8.2,0,0,1,444.35,102.32Z" style="fill: rgb(230, 230, 230); transform-origin: 447.407px 94.855px;" id="elkcvxgvflgzc" class="animable"></path><path d="M425.73,106.33c.39.46.17,2.31.17,2.31a6.18,6.18,0,0,1-.93-1.32,3.71,3.71,0,0,1-1.6.75s.83-1.83,1.48-2c-.14-1,.25-5.11,2.1-5.73C428.2,101.85,426.35,105.57,425.73,106.33Z" style="fill: rgb(230, 230, 230); transform-origin: 425.372px 104.49px;" id="eli2dhiwh3bbj" class="animable"></path><path d="M414.19,74.51a5.8,5.8,0,0,1-1.26-.69A3.22,3.22,0,0,1,412,75s-.05-1.78.4-2.17c-.48-.72-1.79-4.17-.55-5.39,1.58.72,1.55,4.41,1.35,5.25C413.65,73,414.19,74.51,414.19,74.51Z" style="fill: rgb(230, 230, 230); transform-origin: 412.761px 71.22px;" id="elzk0omhrowh" class="animable"></path><path d="M435.94,81.61c.5.38.39,2.17.39,2.17a5.76,5.76,0,0,1-1.17-1.12,5,5,0,0,1-1.77,1s.79-1.85,1.52-2.11c-.23-.9-.14-4.88,1.94-5.75C438.41,77,436.59,80.8,435.94,81.61Z" style="fill: rgb(230, 230, 230); transform-origin: 435.428px 79.79px;" id="el4629ts9my7v" class="animable"></path><path d="M421.77,87.77c.66.36,1,2.76,1,2.76a6.58,6.58,0,0,1-1.6-1.15,6,6,0,0,1-1.79,1.77s.47-2.68,1.24-3.23c-.48-1.12-1.31-6.41.84-8.15C423.49,81,422.32,86.51,421.77,87.77Z" style="fill: rgb(230, 230, 230); transform-origin: 421.075px 85.46px;" id="el79o6nogr33b" class="animable"></path><path d="M303.25,193.75s4.75-2,6.49-1c1.22-2.32,8.57-10.15,13.79-7.44.49,5.85-9.56,9.63-12.17,9.86.18,1.83-3.24,5.21-3.24,5.21a20.37,20.37,0,0,1,0-4.77A11.5,11.5,0,0,1,303.25,193.75Z" style="fill: rgb(230, 230, 230); transform-origin: 313.399px 192.564px;" id="eltsrivzxngc" class="animable"></path><path d="M336.67,178.09c.74-2.94,7.28-14.14,14.59-13.36,2.5,6-8.68,14-11.82,15.27.82,1.87-2.31,6.8-2.31,6.8a19.11,19.11,0,0,1-1.59-5,16,16,0,0,1-6.56-.06S334.17,177.67,336.67,178.09Z" style="fill: rgb(230, 230, 230); transform-origin: 340.301px 175.746px;" id="el2o3x9w7h276" class="animable"></path><path d="M343,149.35c1.37,1.42.3,7.69.3,7.69a17.53,17.53,0,0,1-3.16-4.1,15.94,15.94,0,0,1-5.85,3.09s3.22-6.41,5.58-7.2c-.35-3.2,1.6-17.18,8.37-19.94C352.57,133.49,345.39,146.6,343,149.35Z" style="fill: rgb(230, 230, 230); transform-origin: 341.945px 142.965px;" id="el3ubsrnigqm" class="animable"></path><path d="M313.37,153.05c.29,3.48-5.68,5.72-7.23,5.86.11,1.09-1.92,3.09-1.92,3.09a12,12,0,0,1,0-2.84,6.81,6.81,0,0,1-2.87-1.11s2.82-1.21,3.86-.58C305.91,156.09,310.27,151.45,313.37,153.05Z" style="fill: rgb(230, 230, 230); transform-origin: 307.365px 157.359px;" id="el404v3q2baqp" class="animable"></path><path d="M308,148.25c.23,1-1.6,3.65-1.6,3.65a10.86,10.86,0,0,1-.35-2.75,6.23,6.23,0,0,1-3-.14s2.72-2.11,3.84-1.85c.57-1.58,4.47-7.56,7.79-7C315.31,143.43,309.52,147.6,308,148.25Z" style="fill: rgb(230, 230, 230); transform-origin: 308.889px 146.012px;" id="elnavpxynt7v8" class="animable"></path><path d="M337.6,128.93a10.45,10.45,0,0,1-2.2-2.16,9.36,9.36,0,0,1-3.18,2.3s1.36-4,2.68-4.69c-.47-1.85-.48-10.23,3.27-12.41,2.91,2.35-.23,10.65-1.38,12.46C337.71,125.15,337.6,128.93,337.6,128.93Z" style="fill: rgb(230, 230, 230); transform-origin: 335.796px 120.52px;" id="elyxdx0bjas2" class="animable"></path><path d="M333,202.39c.75-1.44,5.31-6.29,8.54-4.61.3,3.63-5.92,6-7.54,6.11.11,1.14-2,3.23-2,3.23a12.44,12.44,0,0,1,0-3,7.11,7.11,0,0,1-3-1.17S331.92,201.74,333,202.39Z" style="fill: rgb(230, 230, 230); transform-origin: 335.275px 202.275px;" id="el7btd3y3kjem" class="animable"></path><path d="M360.61,163c.6-1.65,4.66-7.89,8.13-7.34.72,3.44-5.32,7.8-6.94,8.47.24,1.07-1.67,3.82-1.67,3.82a11.7,11.7,0,0,1-.36-2.88,6.47,6.47,0,0,1-3.16-.14S359.44,162.76,360.61,163Z" style="fill: rgb(230, 230, 230); transform-origin: 362.705px 161.788px;" id="elmow75v9mnco" class="animable"></path><path d="M370.34,169.46c.32-1.85,3.85-9.06,8.41-8.92,1.81,3.59-4.73,9-6.61,10,.58,1.12-1.12,4.31-1.12,4.31a11.72,11.72,0,0,1-1.21-3,10,10,0,0,1-4.06.26S368.78,169.31,370.34,169.46Z" style="fill: rgb(230, 230, 230); transform-origin: 372.407px 167.694px;" id="elyuht5z188p" class="animable"></path><path d="M369.1,147.24c.32-.9,2.57-4.14,4.62-3.44.49,2.11-3,4-3.91,4.24.17.66-.9,2.07-.9,2.07a7.92,7.92,0,0,1-.27-1.74,4.27,4.27,0,0,1-1.85-.42S368.41,147,369.1,147.24Z" style="fill: rgb(230, 230, 230); transform-origin: 370.278px 146.906px;" id="el8qov2wob5z" class="animable"></path><path d="M312.54,180.5a18.37,18.37,0,0,1-.58-4.65,10.65,10.65,0,0,1-5.11-.22s4.58-3.57,6.47-3.12c1-2.67,7.52-12.75,13.12-11.84,1.17,5.55-8.59,12.57-11.21,13.67C315.62,176.07,312.54,180.5,312.54,180.5Z" style="fill: rgb(230, 230, 230); transform-origin: 316.693px 170.556px;" id="elvcbuxg5uk19" class="animable"></path><path d="M326.91,147.44c.56,1.07-1.07,4.12-1.07,4.12a11.12,11.12,0,0,1-1.16-2.9,9.59,9.59,0,0,1-3.89.24s2.9-2.61,4.39-2.47c.32-1.77,3.7-8.69,8.06-8.55C335,141.32,328.71,146.54,326.91,147.44Z" style="fill: rgb(230, 230, 230); transform-origin: 327.169px 144.719px;" id="eleha82warxdo" class="animable"></path><path d="M374.8,155.66s2.52-3.65,4-3.94c.06-2,2.44-10.41,6.83-11.52,2.24,3.18-3.28,10.62-4.95,12.1.72,1-.48,4.75-.48,4.75a10.66,10.66,0,0,1-1.58-2.79A10,10,0,0,1,374.8,155.66Z" style="fill: rgb(230, 230, 230); transform-origin: 380.479px 148.625px;" id="elwkikdgvv9xe" class="animable"></path><path d="M357.49,143.74c.3.67-.59,2.72-.59,2.72a7.81,7.81,0,0,1-.62-1.84,4.39,4.39,0,0,1-2.09.32s1.57-1.82,2.37-1.79c.18-1.16,2-5.78,4.36-5.87C361.85,139.43,358.46,143.08,357.49,143.74Z" style="fill: rgb(230, 230, 230); transform-origin: 357.635px 141.87px;" id="elyt3drxl3hvm" class="animable"></path><path d="M353,112.12a7.07,7.07,0,0,1-1.21-1.23,3.87,3.87,0,0,1-1.54,1.07s.54-2.06,1.2-2.35c-.32-1-.65-5.4,1.19-6.39,1.57,1.36.29,5.59-.23,6.5C352.94,110.13,353,112.12,353,112.12Z" style="fill: rgb(230, 230, 230); transform-origin: 351.823px 107.67px;" id="elhfdfbzsjm0t" class="animable"></path><path d="M372.59,133.62c.44.6-.29,2.62-.29,2.62a7.06,7.06,0,0,1-1-1.68,6,6,0,0,1-2.36.51s1.54-1.87,2.47-1.92c0-1.11,1.49-5.65,4.17-6C377,129.15,373.61,132.91,372.59,133.62Z" style="fill: rgb(230, 230, 230); transform-origin: 372.431px 131.695px;" id="elx6x84m03wyi" class="animable"></path><path d="M362.49,123.19c.63.64.16,3.5.16,3.5a8,8,0,0,1-1.45-1.86,7.26,7.26,0,0,1-2.65,1.43s1.44-2.92,2.51-3.29c-.17-1.46.67-7.82,3.74-9.1C366.76,116,363.55,121.94,362.49,123.19Z" style="fill: rgb(230, 230, 230); transform-origin: 361.986px 120.28px;" id="eldulrm6wjfj7" class="animable"></path></g><g id="freepik--Shadow--inject-58" class="animable" style="transform-origin: 250px 416.24px;"><ellipse id="freepik--path--inject-58" cx="250" cy="416.24" rx="193.89" ry="11.32" style="fill: rgb(245, 245, 245); transform-origin: 250px 416.24px;" class="animable"></ellipse></g><g id="freepik--Plants--inject-58" class="animable" style="transform-origin: 258.29px 326.502px;"><path d="M424.7,360.56c-2.56,3.24-5.81,5.91-7.63,9.67-1.93,4-2,8.63-3.5,12.8-2.27,6.2-7.7,10.73-13.51,12.73s-11.94,1.75-17.78.71c-4.06-.72-9.34-1.23-11,3.63a8.08,8.08,0,0,0-.4,2.06c0,.35,0,.71-.05,1.06-.14,5-4,9.08-8.53,9.08H347.68a7.45,7.45,0,0,1-6.75-4.48,25.56,25.56,0,0,1,1.34-23.66c1.57-2.49,3.57-4.68,4.9-7.32,2.55-5.06,2.32-11.12,1.05-16.48-2.88-12.12-10.62-22.32-12-34.85-.43-3.81-.17-8,1.9-11.26a13.71,13.71,0,0,1,7.43-5.45c4.62-1.49,10.22-.65,12.65,3.64,2.82,5,.22,11.71.24,17.73a18.05,18.05,0,0,0,5,12.61c1.82,1.81,4.39,3.16,6.84,2.26a9,9,0,0,0,3.73-3.25,32.24,32.24,0,0,0,6.18-16.39c.45-5.37-.48-10.66-.69-16A61.65,61.65,0,0,1,389.26,274a55.3,55.3,0,0,1,27.62-22.19c4.05-1.42,8.93-2.09,11.85,1,1.56,1.64,2.23,4,2.63,6.41,2.1,12.65-2.46,26.09-9.19,37.26s-15.54,20.67-23.36,31c-2.88,3.78-5.71,7.9-6.48,12.65-.7,4.27.34,8.73-1.08,12.83-1,2.85-3.06,5.12-4.79,7.55a36.9,36.9,0,0,0-6.6,18.18,9,9,0,0,0,.42,4.22c1.59,3.62,6.41,3.19,10.12,2.22,4.16-1.1,8.63-2.45,11.48-6.05,3.6-4.53,3.51-11.1,3.51-16.56,0-6.52-1.31-13.08.19-19.61,1.05-4.57,3.8-7,7.22-9.53,4.49-3.37,10.67-6.46,14.65-2.92a10.85,10.85,0,0,1,2.86,5.73A29.84,29.84,0,0,1,424.7,360.56Z" style="fill: rgb(64, 123, 255); transform-origin: 383.96px 331.458px;" id="ely4g55lin57" class="animable"></path><g id="el5v9mk6brexo"><path d="M424.7,360.56c-2.56,3.24-5.81,5.91-7.63,9.67-1.93,4-2,8.63-3.5,12.8-2.27,6.2-7.7,10.73-13.51,12.73s-11.94,1.75-17.78.71c-4.06-.72-9.34-1.23-11,3.63a8.08,8.08,0,0,0-.4,2.06c0,.35,0,.71-.05,1.06-.14,5-4,9.08-8.53,9.08H347.68a7.45,7.45,0,0,1-6.75-4.48,25.56,25.56,0,0,1,1.34-23.66c1.57-2.49,3.57-4.68,4.9-7.32,2.55-5.06,2.32-11.12,1.05-16.48-2.88-12.12-10.62-22.32-12-34.85-.43-3.81-.17-8,1.9-11.26a13.71,13.71,0,0,1,7.43-5.45c4.62-1.49,10.22-.65,12.65,3.64,2.82,5,.22,11.71.24,17.73a18.05,18.05,0,0,0,5,12.61c1.82,1.81,4.39,3.16,6.84,2.26a9,9,0,0,0,3.73-3.25,32.24,32.24,0,0,0,6.18-16.39c.45-5.37-.48-10.66-.69-16A61.65,61.65,0,0,1,389.26,274a55.3,55.3,0,0,1,27.62-22.19c4.05-1.42,8.93-2.09,11.85,1,1.56,1.64,2.23,4,2.63,6.41,2.1,12.65-2.46,26.09-9.19,37.26s-15.54,20.67-23.36,31c-2.88,3.78-5.71,7.9-6.48,12.65-.7,4.27.34,8.73-1.08,12.83-1,2.85-3.06,5.12-4.79,7.55a36.9,36.9,0,0,0-6.6,18.18,9,9,0,0,0,.42,4.22c1.59,3.62,6.41,3.19,10.12,2.22,4.16-1.1,8.63-2.45,11.48-6.05,3.6-4.53,3.51-11.1,3.51-16.56,0-6.52-1.31-13.08.19-19.61,1.05-4.57,3.8-7,7.22-9.53,4.49-3.37,10.67-6.46,14.65-2.92a10.85,10.85,0,0,1,2.86,5.73A29.84,29.84,0,0,1,424.7,360.56Z" style="fill: rgb(255, 255, 255); opacity: 0.6; transform-origin: 383.96px 331.458px;" class="animable"></path></g><path d="M180.52,391.08c-.3,1.33-1,2.43-.88,4s1,3.54,1.33,5.25a4.56,4.56,0,0,1-2.45,5.22c-1.78.82-4.14.71-6.55.29-1.68-.3-3.77-.51-3.41,1.49a4.09,4.09,0,0,0,.27.84c.07.15.13.29.2.43,1,2,.38,3.73-1.33,3.73h-5.48a5.16,5.16,0,0,1-3.47-1.84c-2.74-2.94-4.6-6.81-4.39-9.7a22.38,22.38,0,0,0,.33-3c-.08-2.08-1.42-4.56-3-6.76-3.59-5-8.61-9.15-11.73-14.29a8.85,8.85,0,0,1-1.61-4.62,2.59,2.59,0,0,1,1.67-2.23,5.31,5.31,0,0,1,5.52,1.49c2.09,2,2.5,4.8,3.75,7.27a14.8,14.8,0,0,0,4.5,5.17c1.06.74,2.31,1.3,3.05.93a1.78,1.78,0,0,0,.73-1.33,12.24,12.24,0,0,0-1.06-6.72c-.94-2.21-2.39-4.38-3.57-6.57-2.73-5.05-4.05-10.27-3.66-14.53s2.47-7.53,5.81-9.1a4.37,4.37,0,0,1,4.67.41,9.92,9.92,0,0,1,2.31,2.63,25.51,25.51,0,0,1,4.24,15.27c-.22,4.58-1.57,8.48-2.39,12.71a9.24,9.24,0,0,0,.18,5.18c.62,1.75,1.93,3.58,2.24,5.26a8.5,8.5,0,0,1-.24,3.1,14.21,14.21,0,0,0,1.27,7.45,6.18,6.18,0,0,0,1,1.73,3.8,3.8,0,0,0,4.26.91c1.34-.45,2.74-1,3.08-2.48.41-1.85-1-4.55-2.1-6.78-1.35-2.68-3.2-5.37-4-8.05a3.91,3.91,0,0,1,.75-3.9c1-1.39,2.68-2.65,4.91-1.2a9,9,0,0,1,2.26,2.35C180,384.44,181.13,388.33,180.52,391.08Z" style="fill: rgb(64, 123, 255); transform-origin: 159.728px 379.169px;" id="el84mw4qd1mkg" class="animable"></path><g id="elceum1364gz"><path d="M180.52,391.08c-.3,1.33-1,2.43-.88,4s1,3.54,1.33,5.25a4.56,4.56,0,0,1-2.45,5.22c-1.78.82-4.14.71-6.55.29-1.68-.3-3.77-.51-3.41,1.49a4.09,4.09,0,0,0,.27.84c.07.15.13.29.2.43,1,2,.38,3.73-1.33,3.73h-5.48a5.16,5.16,0,0,1-3.47-1.84c-2.74-2.94-4.6-6.81-4.39-9.7a22.38,22.38,0,0,0,.33-3c-.08-2.08-1.42-4.56-3-6.76-3.59-5-8.61-9.15-11.73-14.29a8.85,8.85,0,0,1-1.61-4.62,2.59,2.59,0,0,1,1.67-2.23,5.31,5.31,0,0,1,5.52,1.49c2.09,2,2.5,4.8,3.75,7.27a14.8,14.8,0,0,0,4.5,5.17c1.06.74,2.31,1.3,3.05.93a1.78,1.78,0,0,0,.73-1.33,12.24,12.24,0,0,0-1.06-6.72c-.94-2.21-2.39-4.38-3.57-6.57-2.73-5.05-4.05-10.27-3.66-14.53s2.47-7.53,5.81-9.1a4.37,4.37,0,0,1,4.67.41,9.92,9.92,0,0,1,2.31,2.63,25.51,25.51,0,0,1,4.24,15.27c-.22,4.58-1.57,8.48-2.39,12.71a9.24,9.24,0,0,0,.18,5.18c.62,1.75,1.93,3.58,2.24,5.26a8.5,8.5,0,0,1-.24,3.1,14.21,14.21,0,0,0,1.27,7.45,6.18,6.18,0,0,0,1,1.73,3.8,3.8,0,0,0,4.26.91c1.34-.45,2.74-1,3.08-2.48.41-1.85-1-4.55-2.1-6.78-1.35-2.68-3.2-5.37-4-8.05a3.91,3.91,0,0,1,.75-3.9c1-1.39,2.68-2.65,4.91-1.2a9,9,0,0,1,2.26,2.35C180,384.44,181.13,388.33,180.52,391.08Z" style="fill: rgb(255, 255, 255); opacity: 0.8; transform-origin: 159.728px 379.169px;" class="animable"></path></g><path d="M262.85,367.1c.81,6.38,5.89,11.21,10.2,16s8.32,11.12,6.38,17.26a20.1,20.1,0,0,1-2.36,4.61,4.77,4.77,0,0,0,4,7.34h12.44a4.77,4.77,0,0,0,4.5-3.17c1.72-4.88.59-11-1.6-15.94-3-6.67-7.48-12.88-8.19-20.14-1-10.14,5.76-19.45,13.43-26.16s16.69-12.06,22.88-20.15c5.25-6.84,8.13-15.21,13-22.31,4.47-6.49,10.51-11.78,14.85-18.35,9.64-14.63,9.18-35.22-1.1-49.4-1.94-2.68-5.32-5.37-8.21-3.76a5.35,5.35,0,0,0-2.28,3.09c-2,6.08,2.63,12.08,4.83,18.08,3.23,8.83,1.08,19-3.93,27s-12.59,14-20.56,19c-9.25,5.78-20.08,11.37-23.42,21.75-1,3.2-1.23,6.61-2.17,9.84a22.55,22.55,0,0,1-10.5,13.23c-3.64,2-7.78,3-11.5,4.92C267.12,353,261.94,359.91,262.85,367.1Z" style="fill: rgb(64, 123, 255); transform-origin: 311.029px 322.377px;" id="el5aev6o12egt" class="animable"></path><g id="elo49fqb86s1h"><path d="M262.85,367.1c.81,6.38,5.89,11.21,10.2,16s8.32,11.12,6.38,17.26a20.1,20.1,0,0,1-2.36,4.61,4.77,4.77,0,0,0,4,7.34h12.44a4.77,4.77,0,0,0,4.5-3.17c1.72-4.88.59-11-1.6-15.94-3-6.67-7.48-12.88-8.19-20.14-1-10.14,5.76-19.45,13.43-26.16s16.69-12.06,22.88-20.15c5.25-6.84,8.13-15.21,13-22.31,4.47-6.49,10.51-11.78,14.85-18.35,9.64-14.63,9.18-35.22-1.1-49.4-1.94-2.68-5.32-5.37-8.21-3.76a5.35,5.35,0,0,0-2.28,3.09c-2,6.08,2.63,12.08,4.83,18.08,3.23,8.83,1.08,19-3.93,27s-12.59,14-20.56,19c-9.25,5.78-20.08,11.37-23.42,21.75-1,3.2-1.23,6.61-2.17,9.84a22.55,22.55,0,0,1-10.5,13.23c-3.64,2-7.78,3-11.5,4.92C267.12,353,261.94,359.91,262.85,367.1Z" style="fill: rgb(255, 255, 255); opacity: 0.7; transform-origin: 311.029px 322.377px;" class="animable"></path></g><path d="M252,369.53c-1.11,6.14,2.33,12.05,4.63,17.85s3,13.51-2,17.28c-1.28,1-2.85,1.58-3.93,2.78-1.87,2.11-1.64,5.47-.19,7.9,0,.08.09.16.15.24a3,3,0,0,1-2.53,4.66H206.93a3,3,0,0,1-2-.71c-6.14-5.24-11.91-11.37-12.59-19.21-.57-6.53,2.68-12.92,7.24-17.62,2.91-3,6.55-5.8,7.33-9.9.82-4.36-2-8.59-5.25-11.6-6.25-5.76-14.42-8.92-21.43-13.73S167,335,168.08,326.53c.82-6.59,5.94-11.88,11.55-15.44,3.34-2.12,7.11-3.85,11.13-3.32a8,8,0,0,1,6.53,4.69c2.22,5.46-3.28,10.87-4,16.68-.72,5.62,3.2,10.89,7.89,14.08s10.2,4.9,15.12,7.7,9.52,7.22,10.12,12.86a11.79,11.79,0,0,1-2.51,8.54c-3.45,4.3-11.56,7-11.49,13.37.06,5.28,5,10.54,9.24,13.16s9.76,3.78,14.58,1.78,6.89-7.78,7.59-12.48c1.21-8-2.57-14.72-5.62-21.85-2.6-6.06-5.84-14-2.37-20.36a10.41,10.41,0,0,1,.77-1.22,12.24,12.24,0,0,1,9.69-5.26c7.35,0,13.56,7.78,12.17,15C257.4,359.84,253,364.13,252,369.53Z" style="fill: rgb(64, 123, 255); transform-origin: 213.312px 363.957px;" id="elmdztrc9hmdi" class="animable"></path><g id="elwcmyjr5fif"><path d="M252,369.53c-1.11,6.14,2.33,12.05,4.63,17.85s3,13.51-2,17.28c-1.28,1-2.85,1.58-3.93,2.78-1.87,2.11-1.64,5.47-.19,7.9,0,.08.09.16.15.24a3,3,0,0,1-2.53,4.66H206.93a3,3,0,0,1-2-.71c-6.14-5.24-11.91-11.37-12.59-19.21-.57-6.53,2.68-12.92,7.24-17.62,2.91-3,6.55-5.8,7.33-9.9.82-4.36-2-8.59-5.25-11.6-6.25-5.76-14.42-8.92-21.43-13.73S167,335,168.08,326.53c.82-6.59,5.94-11.88,11.55-15.44,3.34-2.12,7.11-3.85,11.13-3.32a8,8,0,0,1,6.53,4.69c2.22,5.46-3.28,10.87-4,16.68-.72,5.62,3.2,10.89,7.89,14.08s10.2,4.9,15.12,7.7,9.52,7.22,10.12,12.86a11.79,11.79,0,0,1-2.51,8.54c-3.45,4.3-11.56,7-11.49,13.37.06,5.28,5,10.54,9.24,13.16s9.76,3.78,14.58,1.78,6.89-7.78,7.59-12.48c1.21-8-2.57-14.72-5.62-21.85-2.6-6.06-5.84-14-2.37-20.36a10.41,10.41,0,0,1,.77-1.22,12.24,12.24,0,0,1,9.69-5.26c7.35,0,13.56,7.78,12.17,15C257.4,359.84,253,364.13,252,369.53Z" style="fill: rgb(255, 255, 255); opacity: 0.4; transform-origin: 213.312px 363.957px;" class="animable"></path></g><path d="M123.7,413.63a5.47,5.47,0,0,1-4.77,2.61H95.37c-9.7,0-16.37-9.91-3.7-15.91C103.15,394.9,128.68,405,123.7,413.63Z" style="fill: rgb(64, 123, 255); transform-origin: 104.52px 407.52px;" id="el42j92nchc4m" class="animable"></path><g id="ell148dxzevfp"><path d="M123.7,413.63a5.47,5.47,0,0,1-4.77,2.61H95.37c-9.7,0-16.37-9.91-3.7-15.91C103.15,394.9,128.68,405,123.7,413.63Z" style="fill: rgb(255, 255, 255); opacity: 0.2; transform-origin: 104.52px 407.52px;" class="animable"></path></g><g id="el3aiqkght15"><path d="M116.25,405.26c-.31.75-2,.78-3.8.06s-3-1.91-2.65-2.66,2-.78,3.8-.06S116.57,404.51,116.25,405.26Z" style="fill: rgb(255, 255, 255); opacity: 0.4; transform-origin: 113.021px 403.96px;" class="animable"></path></g><g id="elj884gcd3pld"><path d="M119.42,408.81c-.19.4-1,.48-1.7.17s-1.21-.9-1-1.3,1-.47,1.7-.16S119.61,408.41,119.42,408.81Z" style="fill: rgb(255, 255, 255); opacity: 0.4; transform-origin: 118.067px 408.248px;" class="animable"></path></g><g id="el34gx3wcvpll"><path d="M114.62,408.15c-.14.31-.61.4-1.06.21s-.7-.59-.57-.89a.82.82,0,0,1,1.07-.21C114.51,407.45,114.76,407.85,114.62,408.15Z" style="fill: rgb(255, 255, 255); opacity: 0.4; transform-origin: 113.807px 407.803px;" class="animable"></path></g><path d="M120.2,418.62a2.83,2.83,0,0,0,2.52,1.94h12.45c5.13,0,8.65-7.41,2-11.89C131.06,404.6,117.57,412.17,120.2,418.62Z" style="fill: rgb(64, 123, 255); transform-origin: 130.341px 414.041px;" id="el450n4k5bos" class="animable"></path><g id="el86fwtzdygqt"><path d="M120.2,418.62a2.83,2.83,0,0,0,2.52,1.94h12.45c5.13,0,8.65-7.41,2-11.89C131.06,404.6,117.57,412.17,120.2,418.62Z" style="fill: rgb(255, 255, 255); opacity: 0.4; transform-origin: 130.341px 414.041px;" class="animable"></path></g><path d="M310.7,416.63c2.26,2.49,5.13,3.89,7.45,3.89h28.37c11.69,0,13.24-14.77-5.94-23.71C323.2,388.7,299.08,403.79,310.7,416.63Z" style="fill: rgb(64, 123, 255); transform-origin: 331.418px 407.522px;" id="el2sgsp1z8f16" class="animable"></path><g id="el8ougwu9qmvs"><path d="M310.7,416.63c2.26,2.49,5.13,3.89,7.45,3.89h28.37c11.69,0,13.24-14.77-5.94-23.71C323.2,388.7,299.08,403.79,310.7,416.63Z" style="fill: rgb(255, 255, 255); opacity: 0.4; transform-origin: 331.418px 407.522px;" class="animable"></path></g><g id="elk792dcsgcgd"><path d="M322.84,398.57c.5.91-.66,2.52-2.59,3.58s-3.92,1.19-4.42.28.66-2.52,2.59-3.58S322.33,397.66,322.84,398.57Z" style="fill: rgb(255, 255, 255); opacity: 0.4; transform-origin: 319.335px 400.5px;" class="animable"></path></g><g id="elnvk4nw20m4b"><path d="M328,399.93c.19.54-.38,1.22-1.27,1.54s-1.75.13-1.94-.4.38-1.22,1.26-1.54S327.8,399.4,328,399.93Z" style="fill: rgb(255, 255, 255); opacity: 0.4; transform-origin: 326.395px 400.5px;" class="animable"></path></g><path d="M289.76,413.33a5.43,5.43,0,0,1-4.33,2.91H266.87c-7.65,0-10.69-11.05.63-17.74C277.75,392.44,295.61,403.72,289.76,413.33Z" style="fill: rgb(64, 123, 255); transform-origin: 275.476px 406.516px;" id="elikohcsswemo" class="animable"></path><g id="el3moyh8fxfye"><path d="M289.76,413.33a5.43,5.43,0,0,1-4.33,2.91H266.87c-7.65,0-10.69-11.05.63-17.74C277.75,392.44,295.61,403.72,289.76,413.33Z" style="fill: rgb(255, 255, 255); opacity: 0.1; transform-origin: 275.476px 406.516px;" class="animable"></path></g></g><g id="freepik--Bubbles--inject-58" class="animable" style="transform-origin: 260.311px 287.858px;"><g id="el4q8vlnil5it"><path d="M66.91,343.76a2.29,2.29,0,1,1-2.22-2.36A2.29,2.29,0,0,1,66.91,343.76Z" style="fill: rgb(64, 123, 255); opacity: 0.3; transform-origin: 64.6211px 343.689px;" class="animable"></path></g><g id="el57f7zfmkpqx"><path d="M96.29,274.9a2.29,2.29,0,1,1-2.22-2.36A2.3,2.3,0,0,1,96.29,274.9Z" style="fill: rgb(64, 123, 255); opacity: 0.3; transform-origin: 94.001px 274.829px;" class="animable"></path></g><g id="el8el2chgxmv4"><circle cx="99.52" cy="319.89" r="5.52" style="fill: rgb(64, 123, 255); opacity: 0.3; transform-origin: 99.52px 319.89px; transform: rotate(-43.29deg);" class="animable"></circle></g><g id="eldq9mdtp2v2w"><path d="M261,326.86a5.52,5.52,0,1,1-5.35-5.67A5.52,5.52,0,0,1,261,326.86Z" style="fill: rgb(64, 123, 255); opacity: 0.3; transform-origin: 255.482px 326.707px;" class="animable"></path></g><g id="ela3am9f6aa4u"><path d="M76.73,336.61a1.25,1.25,0,1,1-1.21-1.29A1.25,1.25,0,0,1,76.73,336.61Z" style="fill: rgb(64, 123, 255); opacity: 0.3; transform-origin: 75.4807px 336.569px;" class="animable"></path></g><g id="elf080x3bapul"><path d="M272.48,323.54a2.29,2.29,0,1,1-2.22-2.36A2.29,2.29,0,0,1,272.48,323.54Z" style="fill: rgb(64, 123, 255); opacity: 0.3; transform-origin: 270.191px 323.469px;" class="animable"></path></g><g id="el7ipniz3vklk"><path d="M294.41,299.3A1.25,1.25,0,1,1,293.2,298,1.24,1.24,0,0,1,294.41,299.3Z" style="fill: rgb(64, 123, 255); opacity: 0.3; transform-origin: 293.161px 299.249px;" class="animable"></path></g><g id="elxpf00uczmwp"><path d="M61.93,314.44a1.25,1.25,0,1,1-1.21-1.29A1.25,1.25,0,0,1,61.93,314.44Z" style="fill: rgb(64, 123, 255); opacity: 0.3; transform-origin: 60.6807px 314.399px;" class="animable"></path></g><g id="el6q8ivj3dnbu"><path d="M451.37,319.15a2.3,2.3,0,1,1-2.23-2.36A2.3,2.3,0,0,1,451.37,319.15Z" style="fill: rgb(64, 123, 255); opacity: 0.3; transform-origin: 449.071px 319.089px;" class="animable"></path></g><g id="elarsmrezluer"><path d="M461.19,312a1.25,1.25,0,1,1-1.22-1.29A1.25,1.25,0,0,1,461.19,312Z" style="fill: rgb(64, 123, 255); opacity: 0.3; transform-origin: 459.941px 311.96px;" class="animable"></path></g><g id="el00ghqwhb8cm17"><path d="M446.39,289.83a1.25,1.25,0,1,1-1.21-1.29A1.25,1.25,0,0,1,446.39,289.83Z" style="fill: rgb(64, 123, 255); opacity: 0.3; transform-origin: 445.141px 289.789px;" class="animable"></path></g><g id="el8xpcc0fwesv"><path d="M226.7,304.22a4.48,4.48,0,1,1-4.35-4.61A4.48,4.48,0,0,1,226.7,304.22Z" style="fill: rgb(64, 123, 255); opacity: 0.3; transform-origin: 222.222px 304.088px;" class="animable"></path></g><g id="elug2jxsecl3"><path d="M135.29,284.15a7.71,7.71,0,1,1-7.48-7.95A7.7,7.7,0,0,1,135.29,284.15Z" style="fill: rgb(64, 123, 255); opacity: 0.3; transform-origin: 127.584px 283.907px;" class="animable"></path></g><g id="el9rzc10r2o1"><path d="M387.79,236a6.09,6.09,0,1,1-5.9-6.26A6.09,6.09,0,0,1,387.79,236Z" style="fill: rgb(64, 123, 255); opacity: 0.3; transform-origin: 381.702px 235.827px;" class="animable"></path></g></g><g id="freepik--Fishes--inject-58" class="animable" style="transform-origin: 142.868px 121.435px;"><path d="M230.33,190.15s-9.65-2.06-12.54.56c-3.14-3.9-19.83-15.87-28.63-8.87,1.25,11.18,21.51,14.55,26.5,14,.34,3.52,8,8.59,8,8.59s-.42-5.77-1.7-9C226.44,194.22,230.33,190.15,230.33,190.15Z" style="fill: rgb(64, 123, 255); transform-origin: 209.745px 192.058px;" id="el4cgw0nxkc1" class="animable"></path><path d="M175.85,168.28s-11.24-5.66-15.77-4c-2.49-5.23-18.9-23.84-32.33-19.68-2.48,12.17,21.46,23.05,27.83,24.3-.84,3.81,6.85,11.91,6.85,11.91s1.57-6.21,1.13-10C169.55,171.13,175.85,168.28,175.85,168.28Z" style="fill: rgb(64, 123, 255); transform-origin: 151.71px 162.404px;" id="elkyo7or8lrb" class="animable"></path><g id="elnaexkjypita"><path d="M175.85,168.28s-11.24-5.66-15.77-4c-2.49-5.23-18.9-23.84-32.33-19.68-2.48,12.17,21.46,23.05,27.83,24.3-.84,3.81,6.85,11.91,6.85,11.91s1.57-6.21,1.13-10C169.55,171.13,175.85,168.28,175.85,168.28Z" style="fill: rgb(255, 255, 255); opacity: 0.6; transform-origin: 151.71px 162.404px;" class="animable"></path></g><path d="M158,130.84S149.63,120,144.9,119.39c-.53-6.13-9.35-31.66-23.08-34.33-6.36,10.22,12,32.18,17.4,36.47-2.05,3.17,2.29,14.54,2.29,14.54s3.52-5.06,4.4-8.87A30.49,30.49,0,0,0,158,130.84Z" style="fill: rgb(64, 123, 255); transform-origin: 139.249px 110.565px;" id="ellz5ds3sni8" class="animable"></path><path d="M220.73,122.43s-5.73-1.22-7.44.33c-1.87-2.32-11.78-9.42-17-5.26.74,6.63,12.77,8.63,15.73,8.31.2,2.09,4.75,5.1,4.75,5.1a22.9,22.9,0,0,0-1-5.33A13,13,0,0,0,220.73,122.43Z" style="fill: rgb(64, 123, 255); transform-origin: 208.51px 123.564px;" id="ell3bz2m0o9s" class="animable"></path><path d="M214.27,106.08s-5.88-3-7.89-2.06c-1.66-2.76-11.18-12.55-17.22-10.31-.08,6.44,12.34,12.13,15.49,12.77-.05,2,4.35,6.27,4.35,6.27a20.71,20.71,0,0,0-.37-5.3A12,12,0,0,0,214.27,106.08Z" style="fill: rgb(64, 123, 255); transform-origin: 201.715px 103.065px;" id="eltzw6a80jti" class="animable"></path><g id="el16n5e0rnreok"><path d="M214.27,106.08s-5.88-3-7.89-2.06c-1.66-2.76-11.18-12.55-17.22-10.31-.08,6.44,12.34,12.13,15.49,12.77-.05,2,4.35,6.27,4.35,6.27a20.71,20.71,0,0,0-.37-5.3A12,12,0,0,0,214.27,106.08Z" style="fill: rgb(255, 255, 255); opacity: 0.6; transform-origin: 201.715px 103.065px;" class="animable"></path></g><path d="M152,79.46s-4.06-7.06-6.78-7.81c.19-3.66-2.88-19.39-10.73-22.09C130,55,138.9,69.46,141.74,72.43c-1.47,1.69.15,8.74.15,8.74a19.93,19.93,0,0,0,3.32-4.85A18.14,18.14,0,0,0,152,79.46Z" style="fill: rgb(64, 123, 255); transform-origin: 142.623px 65.365px;" id="el72cjrwvnrg" class="animable"></path><g id="elpo1rf2hzqjk"><path d="M152,79.46s-4.06-7.06-6.78-7.81c.19-3.66-2.88-19.39-10.73-22.09C130,55,138.9,69.46,141.74,72.43c-1.47,1.69.15,8.74.15,8.74a19.93,19.93,0,0,0,3.32-4.85A18.14,18.14,0,0,0,152,79.46Z" style="fill: rgb(255, 255, 255); opacity: 0.6; transform-origin: 142.623px 65.365px;" class="animable"></path></g><path d="M146,179.6s-6-1.27-7.77.35c-1.95-2.42-12.29-9.83-17.74-5.49.78,6.92,13.33,9,16.42,8.68.21,2.17,5,5.32,5,5.32a24.33,24.33,0,0,0-1.05-5.57A13.62,13.62,0,0,0,146,179.6Z" style="fill: rgb(64, 123, 255); transform-origin: 133.245px 180.792px;" id="elsdpsqdj4yrq" class="animable"></path><g id="eln3kqic7vnt"><path d="M146,179.6s-6-1.27-7.77.35c-1.95-2.42-12.29-9.83-17.74-5.49.78,6.92,13.33,9,16.42,8.68.21,2.17,5,5.32,5,5.32a24.33,24.33,0,0,0-1.05-5.57A13.62,13.62,0,0,0,146,179.6Z" style="fill: rgb(255, 255, 255); opacity: 0.3; transform-origin: 133.245px 180.792px;" class="animable"></path></g><path d="M119.53,155.85s-6.14-3.09-8.24-2.14c-1.73-2.88-11.66-13.1-18-10.76-.08,6.72,12.87,12.65,16.17,13.32-.06,2.1,4.53,6.55,4.53,6.55a21.69,21.69,0,0,0-.38-5.53A12.59,12.59,0,0,0,119.53,155.85Z" style="fill: rgb(64, 123, 255); transform-origin: 106.41px 152.712px;" id="el8whp4wtw4au" class="animable"></path><path d="M105,172.53s-6.69-4-9.56-3.16c-1.3-3.34-10.6-15.58-19.09-13.62C74.25,163.16,88.55,171,92.43,172c-.69,2.32,3.69,7.67,3.69,7.67a22.77,22.77,0,0,0,1.16-6.15A19,19,0,0,0,105,172.53Z" style="fill: rgb(64, 123, 255); transform-origin: 90.5703px 167.604px;" id="eljnjlnforz1l" class="animable"></path><g id="eljbchuul2leo"><path d="M105,172.53s-6.69-4-9.56-3.16c-1.3-3.34-10.6-15.58-19.09-13.62C74.25,163.16,88.55,171,92.43,172c-.69,2.32,3.69,7.67,3.69,7.67a22.77,22.77,0,0,0,1.16-6.15A19,19,0,0,0,105,172.53Z" style="fill: rgb(255, 255, 255); opacity: 0.6; transform-origin: 90.5703px 167.604px;" class="animable"></path></g><path d="M94.12,127.68s-3.4-1.27-4.59-.47c-.94-1.58-6.38-6.83-10-4.75-.14,4.14,7.06,6.44,8.9,6.51-.07,1.3,2.45,3.55,2.45,3.55a14.42,14.42,0,0,0-.13-3.36A8.06,8.06,0,0,0,94.12,127.68Z" style="fill: rgb(64, 123, 255); transform-origin: 86.824px 127.25px;" id="elxuuwfg91cfo" class="animable"></path><path d="M216.87,157.46s-9.9-5-13.29-3.45c-2.8-4.65-18.83-21.15-29-17.38-.14,10.85,20.78,20.43,26.1,21.51-.1,3.4,7.32,10.58,7.32,10.58s.32-5.54-.61-8.94A20.19,20.19,0,0,0,216.87,157.46Z" style="fill: rgb(64, 123, 255); transform-origin: 195.725px 152.397px;" id="elmndz1mk4g5o" class="animable"></path><g id="elxom62agkdnm"><path d="M216.87,157.46s-9.9-5-13.29-3.45c-2.8-4.65-18.83-21.15-29-17.38-.14,10.85,20.78,20.43,26.1,21.51-.1,3.4,7.32,10.58,7.32,10.58s.32-5.54-.61-8.94A20.19,20.19,0,0,0,216.87,157.46Z" style="opacity: 0.3; transform-origin: 195.725px 152.397px;" class="animable"></path></g><path d="M180.82,112.46s-6.41-3.84-9.16-3c-1.25-3.2-10.16-14.93-18.29-13.05-2,7.1,11.7,14.58,15.43,15.59-.67,2.22,3.53,7.35,3.53,7.35a21.74,21.74,0,0,0,1.11-5.89A18.15,18.15,0,0,0,180.82,112.46Z" style="fill: rgb(64, 123, 255); transform-origin: 166.996px 107.779px;" id="el9k9ou3tunk7" class="animable"></path><g id="el8e6o0wvbcv7"><path d="M180.82,112.46s-6.41-3.84-9.16-3c-1.25-3.2-10.16-14.93-18.29-13.05-2,7.1,11.7,14.58,15.43,15.59-.67,2.22,3.53,7.35,3.53,7.35a21.74,21.74,0,0,0,1.11-5.89A18.15,18.15,0,0,0,180.82,112.46Z" style="opacity: 0.3; transform-origin: 166.996px 107.779px;" class="animable"></path></g><path d="M81.93,145.12s-6.09-5.92-9-5.9c-.85-3.72-8.43-18.63-17.08-19.11-3,6.82,10.08,18.73,13.78,20.9-1,2.12,2.64,8.73,2.64,8.73a20.8,20.8,0,0,0,2-5.82A18.73,18.73,0,0,0,81.93,145.12Z" style="fill: rgb(64, 123, 255); transform-origin: 68.6684px 134.925px;" id="elkhf0hmbpv4r" class="animable"></path><g id="eldobtqgycp8o"><path d="M81.93,145.12s-6.09-5.92-9-5.9c-.85-3.72-8.43-18.63-17.08-19.11-3,6.82,10.08,18.73,13.78,20.9-1,2.12,2.64,8.73,2.64,8.73a20.8,20.8,0,0,0,2-5.82A18.73,18.73,0,0,0,81.93,145.12Z" style="opacity: 0.3; transform-origin: 68.6684px 134.925px;" class="animable"></path></g><path d="M116.66,117.38s-3.62-2.83-5.12-2.48c-.76-2.12-5.92-10.12-10.36-9.42-.94,4.39,6.77,10,8.84,10.85-.31,1.38,2.11,4.89,2.11,4.89a14.64,14.64,0,0,0,.48-3.67A8.49,8.49,0,0,0,116.66,117.38Z" style="fill: rgb(64, 123, 255); transform-origin: 108.88px 113.328px;" id="elr1wp5ejcx6" class="animable"></path><g id="elybuyyih7wye"><path d="M116.66,117.38s-3.62-2.83-5.12-2.48c-.76-2.12-5.92-10.12-10.36-9.42-.94,4.39,6.77,10,8.84,10.85-.31,1.38,2.11,4.89,2.11,4.89a14.64,14.64,0,0,0,.48-3.67A8.49,8.49,0,0,0,116.66,117.38Z" style="opacity: 0.3; transform-origin: 108.88px 113.328px;" class="animable"></path></g><path d="M111.79,54s-1.78-3.67-3.11-4c.22-2-.78-10.39-4.59-11.56-2.47,3.14,1.5,10.61,2.82,12.11-.79,1-.22,4.73-.22,4.73a13.27,13.27,0,0,0,1.81-2.75A7.42,7.42,0,0,0,111.79,54Z" style="fill: rgb(64, 123, 255); transform-origin: 107.544px 46.86px;" id="elyh7hgk0sd0n" class="animable"></path><g id="els7pr99vuq9"><path d="M111.79,54s-1.78-3.67-3.11-4c.22-2-.78-10.39-4.59-11.56-2.47,3.14,1.5,10.61,2.82,12.11-.79,1-.22,4.73-.22,4.73a13.27,13.27,0,0,0,1.81-2.75A7.42,7.42,0,0,0,111.79,54Z" style="opacity: 0.3; transform-origin: 107.544px 46.86px;" class="animable"></path></g><path d="M85.26,104.3s-3.58-2.92-5.34-2.67c-.48-2.08-4.89-10.06-10-9.64-1.86,4.17,5.87,10,8.05,10.94-.6,1.3,1.51,4.82,1.51,4.82a13.56,13.56,0,0,0,1.21-3.51A11.22,11.22,0,0,0,85.26,104.3Z" style="fill: rgb(64, 123, 255); transform-origin: 77.4469px 99.862px;" id="el16pz37x4j5j" class="animable"></path><g id="elbyx77hxvp3k"><path d="M85.26,104.3s-3.58-2.92-5.34-2.67c-.48-2.08-4.89-10.06-10-9.64-1.86,4.17,5.87,10,8.05,10.94-.6,1.3,1.51,4.82,1.51,4.82a13.56,13.56,0,0,0,1.21-3.51A11.22,11.22,0,0,0,85.26,104.3Z" style="fill: rgb(255, 255, 255); opacity: 0.6; transform-origin: 77.4469px 99.862px;" class="animable"></path></g><path d="M101.56,83.92s-3.79-5-5.93-5.25C95.41,75.88,91.48,64.24,85.25,63,82.33,67.61,90.58,77.65,93,79.62c-1,1.43,1,6.62,1,6.62a15.39,15.39,0,0,0,2-4A13.84,13.84,0,0,0,101.56,83.92Z" style="fill: rgb(64, 123, 255); transform-origin: 93.0962px 74.62px;" id="elo65kblnpgaa" class="animable"></path></g><g id="freepik--Character--inject-58" class="animable" style="transform-origin: 249.94px 211.236px;"><path d="M321.13,111.33,317.54,109a6.15,6.15,0,0,0-8.47,1.86L323,119.8A6.15,6.15,0,0,0,321.13,111.33Z" style="fill: rgb(38, 50, 56); transform-origin: 316.514px 113.92px;" id="el5sfi1cmlsly" class="animable"></path><g id="elx9f5sgofeof"><path d="M292.9,108h9a12,12,0,0,1,12,12v53.83a7.18,7.18,0,0,1-7.18,7.18H288.08a7.18,7.18,0,0,1-7.18-7.18V120a12,12,0,0,1,12-12Z" style="fill: rgb(64, 123, 255); transform-origin: 297.4px 144.505px; transform: rotate(32.58deg);" class="animable"></path></g><g id="el1iowwnemq6b"><path d="M292.9,108h9a12,12,0,0,1,12,12v53.83a7.18,7.18,0,0,1-7.18,7.18H288.08a7.18,7.18,0,0,1-7.18-7.18V120a12,12,0,0,1,12-12Z" style="fill: rgb(255, 255, 255); opacity: 0.6; transform-origin: 297.4px 144.505px; transform: rotate(32.58deg);" class="animable"></path></g><g id="el0mrg8z6u1eq9"><path d="M311.33,153.38a105.28,105.28,0,0,1-27.83-17.79l6.36-10a105.33,105.33,0,0,0,27.84,17.79Q314.51,148.4,311.33,153.38Z" style="fill: rgb(64, 123, 255); opacity: 0.5; transform-origin: 300.6px 139.485px;" class="animable"></path></g><path d="M353.51,140.62l.18,2.11.21,2.23c.16,1.5.32,3,.51,4.5.38,3,.78,6,1.32,8.95A113.88,113.88,0,0,0,360,175.62c.23.69.49,1.35.74,2l.38,1,.09.25,0,.07,0-.08-.08-.14a3.47,3.47,0,0,0-.37-.49,2,2,0,0,0-.6-.5c-.13-.07-.16,0-.14,0a2.42,2.42,0,0,0,.82.39,17,17,0,0,0,3.47.6c1.33.14,2.77.19,4.23.2,5.86,0,12.18-.52,18.33-1H387a3.88,3.88,0,0,1,1.8,7.45,91.09,91.09,0,0,1-9.4,3.28,83.47,83.47,0,0,1-9.87,2.26c-1.72.26-3.47.48-5.32.59a30.12,30.12,0,0,1-6-.26,16.32,16.32,0,0,1-3.74-1,13.44,13.44,0,0,1-2.22-1.18,11.31,11.31,0,0,1-2.34-2.12,9.32,9.32,0,0,1-1-1.49l-.22-.41-.14-.28-.14-.29-.57-1.19c-.36-.79-.76-1.59-1.1-2.39a103.26,103.26,0,0,1-6.07-19.52c-.69-3.3-1.26-6.6-1.68-9.92-.22-1.66-.41-3.32-.55-5-.07-.84-.14-1.68-.19-2.53s-.09-1.66-.13-2.65a7.75,7.75,0,0,1,15.47-.91Z" style="fill: rgb(38, 50, 56); transform-origin: 364.652px 162.386px;" id="elvh0xc81bi5" class="animable"></path><path d="M387.33,177.94l7.31-6.11,2.88,10.84s-6.78,3.61-11.7,1.82l-.06-3.1A4.36,4.36,0,0,1,387.33,177.94Z" style="fill: rgb(255, 195, 189); transform-origin: 391.639px 178.409px;" id="el2tve2kjab9s" class="animable"></path><path d="M404.11,173.6l.38,4.24a2.94,2.94,0,0,1-1.94,3l-5,1.8-2.88-10.84,6.12-.89A2.94,2.94,0,0,1,404.11,173.6Z" style="fill: rgb(255, 195, 189); transform-origin: 399.585px 176.762px;" id="elb8qxxodbxno" class="animable"></path><path d="M252.38,164.09l-5.92,7.45-4.9-8s5.8-7,11-6.21l.69,3A4.39,4.39,0,0,1,252.38,164.09Z" style="fill: rgb(255, 195, 189); transform-origin: 247.462px 164.404px;" id="elnoqkv1by2q" class="animable"></path><path d="M237.58,171.7l-1-3.14a2.29,2.29,0,0,1,1-2.62l3.91-2.36,4.9,8-6.06,1.71A2.29,2.29,0,0,1,237.58,171.7Z" style="fill: rgb(255, 195, 189); transform-origin: 241.436px 168.468px;" id="el6vxd64cxie" class="animable"></path><path d="M353.36,146.38c-1.5,4.05,1,17.79-8.79,20.74-2.65,5.77-10.13,18.6-19.13,29.92l-38.23-21.43c7.61-9.89,12.05-20.08,15-48.31a11.07,11.07,0,0,1,13.31-9.69c1.72.37,3.53.79,5.36,1.28a139.46,139.46,0,0,1,19,6.06c2,.84,4,1.78,5.95,2.71A15,15,0,0,1,353.36,146.38Z" style="fill: rgb(64, 123, 255); transform-origin: 320.753px 157.204px;" id="elj1dgge1xm38" class="animable"></path><g id="elyqf4tqlz1gh"><path d="M314.56,128.53c-1.68,5.25-9.23,11.61-14.43,14.37.61-3.86.93-5.56,1.47-10.21Z" style="opacity: 0.2; transform-origin: 307.345px 135.715px;" class="animable"></path></g><path d="M329.06,96.25c-.7,7.15-3,21-10,23.56,0,0,14.17,6.55,22.58,20.53,8.49-6.75,1.71-13.41,1.71-13.41-8.22-4.75-6.13-10.15-2.85-14.78Z" style="fill: rgb(64, 123, 255); transform-origin: 332.487px 118.295px;" id="elw7thgfjog9" class="animable"></path><g id="el0w08egnml2x9"><path d="M333.72,102.74l6.75,9.41a19.25,19.25,0,0,0-2,3.39c-3.23-1.55-6.8-6.21-6.16-9.29A8.79,8.79,0,0,1,333.72,102.74Z" style="opacity: 0.2; transform-origin: 336.352px 109.14px;" class="animable"></path></g><path d="M325.5,84.17c-.37,10.7-.13,15.92,4.38,22.06,6.79,9.25,19.83,7.83,23.74-2.41,3.51-9.21,4.21-25.13-5.39-30.72S325.87,73.46,325.5,84.17Z" style="fill: rgb(64, 123, 255); transform-origin: 340.692px 91.6824px;" id="elx8sq06ssm3" class="animable"></path><g id="eleyyxq8bqnu"><path d="M365.42,98.37A2.29,2.29,0,1,1,363.2,96,2.29,2.29,0,0,1,365.42,98.37Z" style="fill: rgb(64, 123, 255); opacity: 0.3; transform-origin: 363.131px 98.289px;" class="animable"></path></g><g id="elzd6gqo08hor"><path d="M385.66,45.84a2.29,2.29,0,1,1-2.22-2.36A2.28,2.28,0,0,1,385.66,45.84Z" style="fill: rgb(64, 123, 255); opacity: 0.3; transform-origin: 383.371px 45.769px;" class="animable"></path></g><g id="el2l7ecdjoss4"><path d="M377.73,55.73a5.52,5.52,0,1,1-5.35-5.67A5.51,5.51,0,0,1,377.73,55.73Z" style="fill: rgb(64, 123, 255); opacity: 0.3; transform-origin: 372.212px 55.5774px;" class="animable"></path></g><g id="el8hh5out7mzi"><path d="M375.24,91.22A1.25,1.25,0,1,1,374,89.94,1.25,1.25,0,0,1,375.24,91.22Z" style="fill: rgb(64, 123, 255); opacity: 0.3; transform-origin: 373.99px 91.19px;" class="animable"></path></g><g id="elsbxoulf8eb8"><path d="M360.44,69.05a1.25,1.25,0,1,1-1.21-1.29A1.25,1.25,0,0,1,360.44,69.05Z" style="fill: rgb(64, 123, 255); opacity: 0.3; transform-origin: 359.191px 69.0094px;" class="animable"></path></g><g id="elrsullx2s0s"><path d="M372.66,79.11a4.48,4.48,0,1,1-4.34-4.6A4.49,4.49,0,0,1,372.66,79.11Z" style="fill: rgb(64, 123, 255); opacity: 0.3; transform-origin: 368.182px 78.9879px;" class="animable"></path></g><g id="elsjryaatksxn"><path d="M391.33,69.38a7.72,7.72,0,1,1-7.48-7.94A7.71,7.71,0,0,1,391.33,69.38Z" style="fill: rgb(64, 123, 255); opacity: 0.3; transform-origin: 383.613px 69.1564px;" class="animable"></path></g><path d="M335.79,86.57c-1.43,7.53-1.48,12.16,1.22,16.89,4.07,7.12,13.15,7.77,16.48.68C356,98.75,358.57,85.79,352.2,81S337.22,79.05,335.79,86.57Z" style="fill: rgb(255, 195, 189); transform-origin: 345.506px 93.8922px;" id="el8a2u5fwwdlc" class="animable"></path><path d="M325.29,88.39a16.58,16.58,0,0,1,2.9-.85,22.72,22.72,0,0,1,3-.41,19.54,19.54,0,0,1,3.06,0c.52.06,1,.1,1.55.2a7.14,7.14,0,0,1,.78.15,1.36,1.36,0,0,1,.38.11.6.6,0,0,1,.11.36,3.38,3.38,0,0,1,0,.74,2.69,2.69,0,0,1-.28,1.06l0,0a4.82,4.82,0,0,1-.35.65.7.7,0,0,1-.24.28c-.12,0-.21,0-.32,0s-.43-.1-.64-.14c-.43-.09-.88-.16-1.32-.23-.9-.13-1.81-.23-2.73-.33s-1.86-.16-2.81-.22-1.91-.13-2.86-.23h0a.61.61,0,0,1-.53-.65A.6.6,0,0,1,325.29,88.39Z" style="fill: rgb(38, 50, 56); transform-origin: 331.039px 88.875px;" id="elu12nv50krle" class="animable"></path><path d="M211.92,235.47l1.38-2.25c-3-3.14,1.48-15.4-9.23-15.72-9.44-.28-41,3.35-66.56-1.7-3.51-.7-9.32.53-7.35,8.11,2.57,9.91-.21,22.28,12.8,25.56,13.92,3.52,33.21-17.2,61.62-11.08A7,7,0,0,0,211.92,235.47Z" style="fill: rgb(64, 123, 255); transform-origin: 171.531px 232.753px;" id="elntcjgqzj5b" class="animable"></path><path d="M325.44,197s-27.83,62.87-52.36,89.88C255.7,316.41,203.82,235,203.82,235c-19.34-3.41-21-6-.34-7.6a16.54,16.54,0,0,1,8.9,1.8c10.42,5.43,37,20.55,44.64,37.06,13.05-59.07,35.1-87.94,35.1-87.94Z" style="fill: rgb(38, 50, 56); transform-origin: 257.04px 235.826px;" id="el5r0i2av701n" class="animable"></path><g id="elfrpu8kdkh3m"><path d="M230,239.58c-3.12,5.65-6.32,11.86-9.55,18.69a220.73,220.73,0,0,0,15.45,17.93c7.28-2.46,12.05-9.45,16-18C246.11,251.24,237.8,244.78,230,239.58Z" style="opacity: 0.2; transform-origin: 236.175px 257.89px;" class="animable"></path></g><g id="el1o52dh5ejg4"><path d="M262.47,244.88c2.44-8.38,5-15.95,7.55-22.73C272.49,228.26,271.37,236.63,262.47,244.88Z" style="opacity: 0.2; transform-origin: 266.816px 233.515px;" class="animable"></path></g><path d="M145.46,310.84l-1.78-2c-4.34,1.32-16.1-5.33-20.48,3.48-3.86,7.77-9.61,40.6-26,53.23a4.6,4.6,0,0,0,.92,7.87c10.16,4.45,27.29,9.83,35.57.2,8.86-10.29-5-34.15,12-55.57A5.6,5.6,0,0,0,145.46,310.84Z" style="fill: rgb(64, 123, 255); transform-origin: 121.138px 343.329px;" id="elrzi51lpgnki" class="animable"></path><path d="M315.45,191.44s-52.17,45-76.4,67.94c-25.45,24-94.39,55.93-96.27,57.56,0,0-10.59,21.61-10.95,12.05-.22-6,2.5-11.74,4.54-15.14a24.19,24.19,0,0,1,4-4.93c8.71-8.34,47.11-44.29,77.57-59.7,40.07-68.29,69.3-73.61,69.3-73.61Z" style="fill: rgb(38, 50, 56); transform-origin: 223.634px 253.52px;" id="elg723mf54fj" class="animable"></path><path d="M341.39,89.71c-.12.86.24,1.63.81,1.7s1.11-.56,1.23-1.42-.25-1.63-.81-1.7S341.5,88.85,341.39,89.71Z" style="fill: rgb(38, 50, 56); transform-origin: 342.41px 89.85px;" id="el2bmqkpno9zg" class="animable"></path><path d="M352,91.3c-.11.86.25,1.62.81,1.69s1.12-.56,1.23-1.42-.24-1.62-.81-1.7S352.09,90.43,352,91.3Z" style="fill: rgb(38, 50, 56); transform-origin: 353.02px 91.4293px;" id="elq4xcy71vtv9" class="animable"></path><path d="M353,89.89l2.15-.32S353.82,91,353,89.89Z" style="fill: rgb(38, 50, 56); transform-origin: 354.075px 89.9411px;" id="el06dl1x2ljpdg" class="animable"></path><path d="M340.58,83.12A.55.55,0,0,0,341,83a4.11,4.11,0,0,1,3.63-.67.51.51,0,0,0,.66-.29.51.51,0,0,0-.29-.66,5.07,5.07,0,0,0-4.6.79.5.5,0,0,0-.11.71A.54.54,0,0,0,340.58,83.12Z" style="fill: rgb(38, 50, 56); transform-origin: 342.757px 82.1329px;" id="elzyylxr1sg9l" class="animable"></path><path d="M356.09,86.31a.48.48,0,0,0,.37,0,.51.51,0,0,0,.23-.69A5.09,5.09,0,0,0,353,82.77a.51.51,0,0,0-.56.46.5.5,0,0,0,.45.56,4.07,4.07,0,0,1,2.92,2.26A.5.5,0,0,0,356.09,86.31Z" style="fill: rgb(38, 50, 56); transform-origin: 354.591px 84.5572px;" id="el8fkbolhnqyx" class="animable"></path><path d="M342.36,88.3l2.15-.32S343.23,89.46,342.36,88.3Z" style="fill: rgb(38, 50, 56); transform-origin: 343.435px 88.362px;" id="elqtoq9ngg3xo" class="animable"></path><path d="M287.21,175.61s10.42,19.82-6.19,45.89c4.38,3.35,35.55-6.84,44.42-24.46C325.09,183.43,287.21,175.61,287.21,175.61Z" style="fill: rgb(64, 123, 255); transform-origin: 303.23px 198.872px;" id="eldgkzhz80kq7" class="animable"></path><path d="M311.94,132.69c-3,0-6.17-.09-9.24-.09s-6.18,0-9.18.15a66.54,66.54,0,0,0-8.48.77,14.33,14.33,0,0,0-2.8.68,34.54,34.54,0,0,0-3.42,2A76.31,76.31,0,0,0,265.65,148c-4.15,4.51-8.17,9.48-11.89,14.4l-.08.11a3.86,3.86,0,0,1-6.64-3.82,96.76,96.76,0,0,1,4.45-9.08c1.63-2.93,3.37-5.81,5.29-8.61a73.18,73.18,0,0,1,14-15.69,43.1,43.1,0,0,1,4.7-3.29c.42-.26,1.16-.65,1.69-.9s1.12-.51,1.62-.69,1-.38,1.52-.53,1-.3,1.45-.44a68.55,68.55,0,0,1,10.69-1.85c3.43-.35,6.8-.52,10.16-.59s6.64,0,10.11.22a7.75,7.75,0,0,1-.58,15.49Z" style="fill: rgb(38, 50, 56); transform-origin: 283.46px 140.52px;" id="elt5iy5pgsrkj" class="animable"></path><g id="ely0vtx9cmzn"><path d="M340.28,85.18a3.64,3.64,0,0,0-3,2.29c-2,5.09-.09,7.24,3.69,8,4.16.87,5.83-1.17,8.49-1s4.72,4.34,6.37,3.11,2.93-6.75,1.07-9C355.34,86.61,345.23,84.69,340.28,85.18Z" style="fill: rgb(64, 123, 255); opacity: 0.5; transform-origin: 347.146px 91.4546px;" class="animable"></path></g><path d="M355.18,98.39c-.91,0-1.81-.79-2.7-1.56s-2-1.72-3.05-1.78a7.37,7.37,0,0,0-2.74.53,10.15,10.15,0,0,1-5.84.49c-2.24-.47-3.69-1.37-4.42-2.73-.81-1.51-.71-3.49.31-6.08a4.18,4.18,0,0,1,3.49-2.65h0c5-.5,15.38,1.41,17.12,3.56a6.76,6.76,0,0,1,1,5c-.27,2.17-1.12,4.07-2.16,4.84A1.6,1.6,0,0,1,355.18,98.39Zm-6-4.5h.3C351,94,352.17,95,353.24,96s1.78,1.5,2.25,1.16c.75-.57,1.47-2.28,1.69-4.07a5.69,5.69,0,0,0-.73-4.16c-1.36-1.68-11.3-3.61-16.11-3.13h0a3,3,0,0,0-2.52,1.93c-.88,2.21-1,3.93-.37,5.1s1.75,1.75,3.63,2.14a9.1,9.1,0,0,0,5.25-.45A9.05,9.05,0,0,1,349.19,93.89Z" style="fill: rgb(38, 50, 56); transform-origin: 347.18px 91.4598px;" id="elzj8gn90fytp" class="animable"></path><path d="M340.54,102.05c1.73-1.78,6.81-7.53,9.34-7.21s4,6.75,3.69,10.06c-.25,2.73-.61,6.53-8.23,5.8S337.78,104.9,340.54,102.05Z" style="fill: rgb(38, 50, 56); transform-origin: 346.224px 102.809px;" id="elsx7mipe2i3s" class="animable"></path><path d="M294,164.62a51.26,51.26,0,0,1-4.06,7.25c6.29,5.25,25.31,21.07,36.64,23.72,1.79-2.27,3.49-4.6,5.09-6.91C320.47,186.34,300.91,170.33,294,164.62Z" style="fill: rgb(38, 50, 56); transform-origin: 310.805px 180.105px;" id="elap44mpgihf" class="animable"></path><path d="M328.4,159.92c-4.94,0-10.18-1.83-13-5.84a12.9,12.9,0,0,1-2-8.59,30.47,30.47,0,0,1,5.89-15.65,42,42,0,0,1,3.47-3.69c.74-.72,1.5-1.46,2.2-2.22,2.73-2.93,4-5.88,4-9a7,7,0,0,0-1.3-4.24,3.45,3.45,0,0,0-2.64-1.35,5.6,5.6,0,0,0-4,1.93.49.49,0,1,1-.72-.67,6.44,6.44,0,0,1,4.74-2.24,4.41,4.41,0,0,1,3.38,1.71,7.7,7.7,0,0,1,1.52,4.84c.05,3.39-1.34,6.56-4.25,9.69-.72.78-1.49,1.53-2.23,2.25a39.76,39.76,0,0,0-3.39,3.6,29.4,29.4,0,0,0-5.68,15.12,12,12,0,0,0,1.83,7.94c3.64,5.1,11.83,6.41,17.32,4.69,7.86-2.46,11.22-10.2,13.07-15.8a64.49,64.49,0,0,0,3.09-20.21A78.35,78.35,0,0,0,349,111.9c-.13-1.05-.36-2.1-.61-3.22a22.15,22.15,0,0,1-.75-6.33.5.5,0,0,1,.53-.45.49.49,0,0,1,.45.53,21.56,21.56,0,0,0,.73,6c.24,1.09.49,2.22.63,3.3a80.46,80.46,0,0,1,.7,10.42,65.3,65.3,0,0,1-3.15,20.52c-1.91,5.81-5.42,13.83-13.7,16.42A18,18,0,0,1,328.4,159.92Z" style="fill: rgb(38, 50, 56); transform-origin: 331.994px 130.909px;" id="elv5pkphjobcf" class="animable"></path></g><defs>     <filter id="active" height="200%">         <feMorphology in="SourceAlpha" result="DILATED" operator="dilate" radius="2"></feMorphology>                <feFlood flood-color="#32DFEC" flood-opacity="1" result="PINK"></feFlood>        <feComposite in="PINK" in2="DILATED" operator="in" result="OUTLINE"></feComposite>        <feMerge>            <feMergeNode in="OUTLINE"></feMergeNode>            <feMergeNode in="SourceGraphic"></feMergeNode>        </feMerge>    </filter>    <filter id="hover" height="200%">        <feMorphology in="SourceAlpha" result="DILATED" operator="dilate" radius="2"></feMorphology>                <feFlood flood-color="#ff0000" flood-opacity="0.5" result="PINK"></feFlood>        <feComposite in="PINK" in2="DILATED" operator="in" result="OUTLINE"></feComposite>        <feMerge>            <feMergeNode in="OUTLINE"></feMergeNode>            <feMergeNode in="SourceGraphic"></feMergeNode>        </feMerge>            <feColorMatrix type="matrix" values="0   0   0   0   0                0   1   0   0   0                0   0   0   0   0                0   0   0   1   0 "></feColorMatrix>    </filter></defs></svg>